<svg width="22" height="23" viewBox="0 0 22 23" fill="none" xmlns="http://www.w3.org/2000/svg">
<path d="M5.2082 4.11594C4.65354 5.27861 4.3762 6.35061 4.3762 7.33194C4.3762 8.16395 4.5682 8.78794 4.9522 9.20394C5.34687 9.61994 6.00287 9.82794 6.9202 9.82794H8.2962C8.97887 9.82794 9.49087 9.76928 9.8322 9.65194C10.1735 9.53461 10.4029 9.33194 10.5202 9.04394C10.6482 8.75594 10.7122 8.32928 10.7122 7.76394V2.73994H12.7442V7.76394C12.7442 9.10794 12.3815 10.1693 11.6562 10.9479C10.9415 11.7373 9.82154 12.1319 8.2962 12.1319H6.9202C5.9602 12.1319 5.13887 11.9186 4.4562 11.4919C3.77354 11.0653 3.2562 10.4893 2.9042 9.76394C2.5522 9.03861 2.3762 8.22794 2.3762 7.33194C2.3762 6.68128 2.4882 5.98794 2.7122 5.25194C2.9362 4.51594 3.20287 3.83861 3.5122 3.21994L5.2082 4.11594ZM6.9202 1.26794H9.0482V3.34794H6.9202V1.26794Z" fill="#ADADAD"/>
<path d="M3.79574 22.0681C2.67574 22.0681 1.84907 21.7427 1.31574 21.0921C0.793072 20.4414 0.531738 19.5667 0.531738 18.4681V11.3801H2.56374V14.9241V18.4681C2.56374 18.8734 2.58507 19.1614 2.62774 19.3321C2.68107 19.5027 2.78774 19.6201 2.94774 19.6841C3.11841 19.7374 3.40107 19.764 3.79574 19.764H4.37174L4.46774 20.948L4.37174 21.9556L3.79574 22.0681Z" fill="#ADADAD"/>
<path d="M3.19218 19.7641H3.60818C3.82151 19.7641 3.98151 19.7161 4.08818 19.6201C4.20551 19.5134 4.29085 19.3427 4.34418 19.1081L4.76018 17.5721C4.99485 16.6441 5.38951 15.9347 5.94418 15.4441C6.49885 14.9534 7.16551 14.7081 7.94418 14.7081C8.56285 14.7081 9.11218 14.8787 9.59218 15.2201C10.0828 15.5507 10.4668 16.0147 10.7442 16.6121C11.0215 17.1987 11.1602 17.8601 11.1602 18.5961C11.1602 19.4814 11.0162 20.2067 10.7282 20.7721C10.4402 21.3267 10.0775 21.7321 9.64018 21.9881C9.21352 22.2334 8.76552 22.3561 8.29618 22.3561C7.93352 22.3561 7.54951 22.2814 7.14418 22.1321C6.74952 21.9934 6.15751 21.7374 5.36818 21.3641C5.12285 21.5881 4.85085 21.7641 4.55218 21.8921C4.25351 22.0094 3.94951 22.0681 3.64018 22.0681H3.19218V19.7641ZM6.34418 19.4281C6.92018 19.6947 7.34685 19.8761 7.62418 19.9721C7.90151 20.0681 8.15218 20.1161 8.37618 20.1161C8.96285 20.1161 9.25618 19.6147 9.25618 18.6121C9.25618 18.0681 9.13885 17.6521 8.90418 17.3641C8.66952 17.0654 8.36551 16.9161 7.99218 16.9161C7.68285 16.9161 7.41085 17.0281 7.17618 17.2521C6.94151 17.4761 6.77085 17.8014 6.66418 18.2281L6.34418 19.4281Z" fill="#ADADAD"/>
<path d="M13.3842 19.8919C14.0455 19.8919 14.5469 19.8333 14.8882 19.7159C15.2295 19.6093 15.4642 19.4226 15.5922 19.1559C15.7309 18.8999 15.8109 18.5319 15.8322 18.0519H14.4562C13.4429 18.0519 12.6375 17.7586 12.0402 17.1719C11.4535 16.5746 11.1602 15.7426 11.1602 14.6759C11.1602 13.9186 11.2989 13.2466 11.5762 12.6599C11.8642 12.0733 12.2535 11.6199 12.7442 11.2999C13.2455 10.9693 13.8109 10.8039 14.4402 10.8039C15.1229 10.8039 15.7202 10.9639 16.2322 11.2839C16.7549 11.6039 17.1549 12.0573 17.4322 12.6439C17.7202 13.2306 17.8642 13.9079 17.8642 14.6759V15.7479H18.7442L18.8722 16.9159L18.7442 18.0519H17.8642C17.8215 19.2999 17.4375 20.3026 16.7122 21.0599C15.9869 21.8173 14.8775 22.1959 13.3842 22.1959H11.4802V19.8919H13.3842ZM13.1122 14.5639C13.1122 15.0013 13.2189 15.3266 13.4322 15.5399C13.6455 15.7426 13.9869 15.8439 14.4562 15.8439H15.8322V14.6279C15.8322 13.5186 15.3682 12.9639 14.4402 12.9639C14.0029 12.9639 13.6722 13.1133 13.4482 13.4119C13.2242 13.7106 13.1122 14.0946 13.1122 14.5639Z" fill="#ADADAD"/>
<path d="M16.001 15.7479H17.777C18.257 15.7479 18.5983 15.6679 18.801 15.5079C19.0036 15.3373 19.0943 15.0973 19.073 14.7879C19.0196 14.1266 18.881 13.2413 18.657 12.1319L20.577 11.6519C20.705 12.2173 20.8223 12.8199 20.929 13.4599C21.0463 14.0999 21.105 14.6173 21.105 15.0119C21.105 15.5453 20.9876 16.0413 20.753 16.4999C20.5183 16.9586 20.161 17.3319 19.681 17.6199C19.2116 17.9079 18.6303 18.0519 17.937 18.0519H16.001V15.7479ZM16.449 7.97194H18.353V9.87594H16.449V7.97194ZM19.441 7.97194H21.361V9.87594H19.441V7.97194Z" fill="#ADADAD"/>
</svg>
