<svg width="21" height="20" viewBox="0 0 21 20" fill="none" xmlns="http://www.w3.org/2000/svg">
<path d="M5.15658 3.28002C4.68458 4.26402 4.44858 5.15602 4.44858 5.95602C4.44858 6.70002 4.63658 7.30802 5.01258 7.78002C5.39658 8.26002 5.96458 8.50002 6.71658 8.50002H8.00058C8.55258 8.50002 8.98858 8.43202 9.30858 8.29602C9.62858 8.16002 9.85658 7.94802 9.99258 7.66002C10.1366 7.37202 10.2086 6.98802 10.2086 6.50802V2.68002H10.9526V6.50802C10.9526 8.39602 9.96858 9.34002 8.00058 9.34002H6.71658C6.07658 9.34002 5.52858 9.18002 5.07258 8.86002C4.61658 8.54802 4.27258 8.13202 4.04058 7.61202C3.81658 7.10002 3.70458 6.54802 3.70458 5.95602C3.70458 5.02002 3.97658 4.01602 4.52058 2.94402L5.15658 3.28002ZM7.12793 2H8.19593V3.068H7.12793V2Z" fill="#757575"/>
<path d="M4.516 16.828C3.788 16.828 3.272 16.636 2.968 16.252C2.664 15.868 2.512 15.296 2.512 14.536L2.5 9.04001H3.244L3.256 14.536C3.256 14.936 3.288 15.236 3.352 15.436C3.424 15.636 3.548 15.78 3.724 15.868C3.9 15.948 4.164 15.988 4.516 15.988H4.672L4.732 16.42L4.672 16.828H4.516Z" fill="#757575"/>
<path d="M4.17526 15.988H4.51126C4.71126 15.988 4.87926 15.936 5.01526 15.832C5.15926 15.728 5.25526 15.584 5.30326 15.4L5.68726 14.02C5.85526 13.42 6.11526 12.952 6.46726 12.616C6.81926 12.272 7.24326 12.1 7.73926 12.1C8.13926 12.1 8.49126 12.216 8.79526 12.448C9.09926 12.68 9.33527 12.992 9.50326 13.384C9.67126 13.776 9.75526 14.204 9.75526 14.668C9.75526 15.228 9.67527 15.692 9.51527 16.06C9.35527 16.42 9.15127 16.68 8.90327 16.84C8.65527 17.008 8.38726 17.092 8.09926 17.092C7.80326 17.092 7.49926 17.032 7.18726 16.912C6.88326 16.792 6.39526 16.56 5.72326 16.216C5.57126 16.408 5.38726 16.56 5.17126 16.672C4.96326 16.776 4.74326 16.828 4.51126 16.828H4.17526V15.988ZM6.05926 15.472C6.69126 15.792 7.13126 16.004 7.37926 16.108C7.62726 16.204 7.86726 16.252 8.09926 16.252C8.38726 16.252 8.61126 16.14 8.77126 15.916C8.93126 15.684 9.01126 15.268 9.01126 14.668C9.01126 14.14 8.89927 13.72 8.67527 13.408C8.45927 13.096 8.14726 12.94 7.73926 12.94C7.41926 12.94 7.14726 13.048 6.92326 13.264C6.69926 13.48 6.52726 13.804 6.40726 14.236L6.05926 15.472Z" fill="#757575"/>
<path d="M11.7086 16.264C12.2766 16.264 12.7206 16.188 13.0406 16.036C13.3686 15.892 13.5966 15.676 13.7246 15.388C13.8606 15.1 13.9286 14.724 13.9286 14.26V14.068H12.5126C11.8726 14.068 11.3526 13.884 10.9526 13.516C10.5606 13.14 10.3646 12.604 10.3646 11.908C10.3646 11.428 10.4526 10.996 10.6286 10.612C10.8126 10.22 11.0686 9.91201 11.3966 9.68801C11.7246 9.45601 12.0926 9.34001 12.5006 9.34001C13.1566 9.34001 13.6806 9.58001 14.0726 10.06C14.4726 10.532 14.6726 11.148 14.6726 11.908V13.228H15.3446L15.4046 13.66L15.3446 14.068H14.6726V14.26C14.6726 15.14 14.4366 15.832 13.9646 16.336C13.5006 16.848 12.7486 17.104 11.7086 17.104H10.5206V16.264H11.7086ZM11.1086 11.908C11.1086 12.38 11.2246 12.72 11.4566 12.928C11.6886 13.128 12.0406 13.228 12.5126 13.228H13.9286V11.908C13.9286 11.364 13.8046 10.94 13.5566 10.636C13.3166 10.324 12.9646 10.168 12.5006 10.168C12.0686 10.168 11.7286 10.328 11.4806 10.648C11.2326 10.96 11.1086 11.38 11.1086 11.908Z" fill="#757575"/>
<path d="M14.6726 13.228H15.6278C16.0918 13.228 16.4198 13.14 16.6118 12.964C16.8118 12.78 16.9118 12.544 16.9118 12.256C16.9118 12.032 16.8718 11.7 16.7918 11.26C16.7198 10.812 16.6358 10.392 16.5398 10L17.2598 9.80801C17.3558 10.224 17.4438 10.668 17.5238 11.14C17.6118 11.612 17.6558 11.984 17.6558 12.256C17.6558 12.56 17.5838 12.852 17.4398 13.132C17.2958 13.404 17.0718 13.628 16.7678 13.804C16.4638 13.98 16.0838 14.068 15.6278 14.068H14.6726V13.228ZM14.1358 7.288H15.2038V8.356H14.1358V7.288ZM16.1278 7.288H17.1958V8.356H16.1278V7.288Z" fill="#757575"/>
</svg>
