<svg width="24" height="16" viewBox="0 0 24 16" fill="none" xmlns="http://www.w3.org/2000/svg">
<path d="M3.11981 3.11902C2.64438 4.09811 2.40667 5.00084 2.40667 5.82723C2.40667 6.52786 2.57124 7.05334 2.90038 7.40365C3.23867 7.75397 3.80095 7.92912 4.58724 7.92912H5.76667C6.35181 7.92912 6.79067 7.87972 7.08324 7.78091C7.37581 7.68211 7.57238 7.51144 7.67295 7.26891C7.78267 7.02639 7.83753 6.66709 7.83753 6.19102V1.96028H9.57924V6.19102C9.57924 7.32281 9.26838 8.21656 8.64667 8.87228C8.0341 9.53699 7.0741 9.86934 5.76667 9.86934H4.58724C3.76438 9.86934 3.06038 9.68969 2.47524 9.33039C1.8901 8.97109 1.44667 8.48604 1.14495 7.87523C0.84324 7.26442 0.692383 6.58176 0.692383 5.82723C0.692383 5.2793 0.788383 4.69544 0.980383 4.07565C1.17238 3.45586 1.40095 2.88548 1.6661 2.36449L3.11981 3.11902ZM4.58724 0.720703H6.41124V2.47228H4.58724V0.720703Z" fill="#353535"/>
<path d="M5.811 15.6361C4.851 15.6361 4.14243 15.3621 3.68528 14.8142C3.23728 14.2662 3.01328 13.5297 3.01328 12.6045V6.63563H4.755V12.6045C4.755 12.9458 4.77328 13.1883 4.80985 13.3321C4.85557 13.4758 4.947 13.5746 5.08414 13.6285C5.23043 13.6734 5.47271 13.6958 5.811 13.6958H6.30471L6.387 14.6929L6.30471 15.6361H5.811Z" fill="#353535"/>
<path d="M6.16457 13.6958H6.52114C6.704 13.6958 6.84114 13.6554 6.93257 13.5746C7.03314 13.4848 7.10628 13.341 7.152 13.1434L7.50857 11.8499C7.70971 11.0685 8.048 10.4711 8.52343 10.0579C8.99885 9.64476 9.57028 9.43816 10.2377 9.43816C10.768 9.43816 11.2389 9.58188 11.6503 9.86932C12.0709 10.1478 12.4 10.5385 12.6377 11.0415C12.8754 11.5356 12.9943 12.0925 12.9943 12.7123C12.9943 13.4578 12.8709 14.0686 12.624 14.5447C12.3771 15.0118 12.0663 15.3531 11.6914 15.5687C11.3257 15.7753 10.9417 15.8786 10.5394 15.8786C10.2286 15.8786 9.89943 15.8157 9.552 15.6899C9.21371 15.5732 8.70628 15.3576 8.02971 15.0432C7.81943 15.2318 7.58628 15.38 7.33028 15.4878C7.07428 15.5866 6.81371 15.6361 6.54857 15.6361H6.16457V13.6958ZM8.86628 13.4129C9.36 13.6375 9.72571 13.7902 9.96343 13.871C10.2011 13.9518 10.416 13.9923 10.608 13.9923C11.1109 13.9923 11.3623 13.5701 11.3623 12.7257C11.3623 12.2676 11.2617 11.9173 11.0606 11.6748C10.8594 11.4233 10.5989 11.2975 10.2789 11.2975C10.0137 11.2975 9.78057 11.3918 9.57943 11.5805C9.37828 11.7691 9.232 12.0431 9.14057 12.4024L8.86628 13.4129Z" fill="#353535"/>
<path d="M14.9006 13.8035C15.4674 13.8035 15.8972 13.7541 16.1897 13.6553C16.4823 13.5655 16.6834 13.4083 16.7932 13.1837C16.912 12.9682 16.9806 12.6583 16.9989 12.254H15.8194C14.9509 12.254 14.2606 12.007 13.7486 11.513C13.2457 11.01 12.9943 10.3093 12.9943 9.4111C12.9943 8.77334 13.1132 8.20745 13.3509 7.71342C13.5977 7.21938 13.9314 6.83763 14.352 6.56815C14.7817 6.2897 15.2663 6.15047 15.8057 6.15047C16.3909 6.15047 16.9029 6.28521 17.3417 6.55468C17.7897 6.82415 18.1326 7.20591 18.3703 7.69994C18.6172 8.19398 18.7406 8.76436 18.7406 9.4111V10.3138H19.4949L19.6046 11.2974L19.4949 12.254H18.7406C18.704 13.305 18.3749 14.1493 17.7532 14.7871C17.1314 15.4249 16.1806 15.7437 14.9006 15.7437H13.2686V13.8035H14.9006ZM14.6674 9.31678C14.6674 9.68506 14.7589 9.95903 14.9417 10.1387C15.1246 10.3093 15.4172 10.3947 15.8194 10.3947H16.9989V9.37068C16.9989 8.4365 16.6012 7.96942 15.8057 7.96942C15.4309 7.96942 15.1474 8.09517 14.9554 8.34668C14.7634 8.59819 14.6674 8.92156 14.6674 9.31678Z" fill="#353535"/>
<path d="M19.3379 10.3138H20.8602C21.2716 10.3138 21.5642 10.2465 21.7379 10.1117C21.9116 9.96801 21.9893 9.76591 21.9711 9.50542C21.9253 8.9485 21.8065 8.20296 21.6145 7.26878L23.2602 6.86457C23.3699 7.34064 23.4705 7.84815 23.5619 8.3871C23.6625 8.92605 23.7128 9.3617 23.7128 9.69405C23.7128 10.1432 23.6122 10.5609 23.4111 10.9471C23.2099 11.3333 22.9036 11.6477 22.4922 11.8903C22.0899 12.1328 21.5916 12.254 20.9973 12.254H19.3379V10.3138ZM19.7219 3.76563H21.3539V5.36899H19.7219V3.76563ZM22.2865 3.76563H23.9322V5.36899H22.2865V3.76563Z" fill="#353535"/>
</svg>
